# xmcd CD database file
#
# Track frame offsets:
#	150
#	18167
#	38110
#	54412
#	68210
#	85947
#	108060
#	128595
#	156155
#	179810
#	199537
#	218220
#	235207
#	252252
#
# Disc length: 3542 seconds
#
# Revision: 1
# Processed by: cddbd v1.5.2PL0 Copyright (c) Steve Scherf et al.
# Submitted via: CDex 1.70beta2
#
DISCID=b70dd40e
DTITLE=Various World Artists - Voice of Silence-the most beautiful voice from taiwan-
DYEAR=2000
DGENRE=World
TTITLE0=Difang/Elders Drinking Song
TTITLE1=Kimbo/Beautiful Rice Grain
TTITLE2=Panai/Tai Tung Jen
TTITLE3=Enka/The Ancient Rules of Atayal
TTITLE4=Samingad/Song of Puyuma
TTITLE5=Samingad/Ring The Bell
TTITLE6=Ngner-ngner/Lai-Sue
TTITLE7=AM合唱団/Drifted In Love
TTITLE8=Difang/Visiting Song
TTITLE9=Pur-dur/Ocean
TTITLE10=Grandma Mt.High/Ananasi Anane
TTITLE11=Grandma Mt.High/Shake Shake Song
TTITLE12=Kimbo/Het Eyland Formosa
TTITLE13=Kimbo/Het Eyland Formosa(Piano Solo)
EXTD=YEAR: 2000
EXTT0=
EXTT1=
EXTT2=
EXTT3=
EXTT4=
EXTT5=
EXTT6=
EXTT7=
EXTT8=
EXTT9=
EXTT10=
EXTT11=
EXTT12=
EXTT13=
PLAYORDER=
